<mxfile host="app.diagrams.net" modified="2023-12-14T18:45:07.995Z" agent="Mozilla/5.0 (Windows NT 10.0; Win64; x64) AppleWebKit/537.36 (KHTML, like Gecko) Chrome/120.0.0.0 Safari/537.36" etag="lIICC7dZ1plb7SrX_HO_" version="22.1.9" type="github">
  <diagram id="C5RBs43oDa-KdzZeNtuy" name="Page-1">
    <mxGraphModel dx="2074" dy="1098" grid="1" gridSize="10" guides="1" tooltips="1" connect="1" arrows="1" fold="1" page="1" pageScale="1" pageWidth="827" pageHeight="1169" math="0" shadow="0">
      <root>
        <mxCell id="WIyWlLk6GJQsqaUBKTNV-0" />
        <mxCell id="WIyWlLk6GJQsqaUBKTNV-1" parent="WIyWlLk6GJQsqaUBKTNV-0" />
        <mxCell id="K6e0-WF95_BE1Na-YqOo-1" style="edgeStyle=orthogonalEdgeStyle;rounded=0;orthogonalLoop=1;jettySize=auto;html=1;exitX=0.5;exitY=1;exitDx=0;exitDy=0;" edge="1" parent="WIyWlLk6GJQsqaUBKTNV-1" source="K6e0-WF95_BE1Na-YqOo-0">
          <mxGeometry relative="1" as="geometry">
            <mxPoint x="280" y="170" as="targetPoint" />
          </mxGeometry>
        </mxCell>
        <mxCell id="K6e0-WF95_BE1Na-YqOo-0" value="Start" style="ellipse;whiteSpace=wrap;html=1;" vertex="1" parent="WIyWlLk6GJQsqaUBKTNV-1">
          <mxGeometry x="220" y="40" width="120" height="80" as="geometry" />
        </mxCell>
        <mxCell id="K6e0-WF95_BE1Na-YqOo-9" value="SI" style="edgeStyle=orthogonalEdgeStyle;rounded=0;orthogonalLoop=1;jettySize=auto;html=1;exitX=0.5;exitY=1;exitDx=0;exitDy=0;" edge="1" parent="WIyWlLk6GJQsqaUBKTNV-1" source="K6e0-WF95_BE1Na-YqOo-2">
          <mxGeometry relative="1" as="geometry">
            <mxPoint x="280" y="360" as="targetPoint" />
          </mxGeometry>
        </mxCell>
        <mxCell id="K6e0-WF95_BE1Na-YqOo-14" value="NO" style="edgeStyle=orthogonalEdgeStyle;rounded=0;orthogonalLoop=1;jettySize=auto;html=1;exitX=1;exitY=0.5;exitDx=0;exitDy=0;entryX=0;entryY=0.5;entryDx=0;entryDy=0;" edge="1" parent="WIyWlLk6GJQsqaUBKTNV-1" source="K6e0-WF95_BE1Na-YqOo-2" target="K6e0-WF95_BE1Na-YqOo-13">
          <mxGeometry relative="1" as="geometry" />
        </mxCell>
        <mxCell id="K6e0-WF95_BE1Na-YqOo-2" value="Ho (ancora) una foto?" style="rhombus;whiteSpace=wrap;html=1;" vertex="1" parent="WIyWlLk6GJQsqaUBKTNV-1">
          <mxGeometry x="205" y="170" width="150" height="80" as="geometry" />
        </mxCell>
        <mxCell id="K6e0-WF95_BE1Na-YqOo-11" value="NO" style="edgeStyle=orthogonalEdgeStyle;rounded=0;orthogonalLoop=1;jettySize=auto;html=1;exitX=1;exitY=0.5;exitDx=0;exitDy=0;" edge="1" parent="WIyWlLk6GJQsqaUBKTNV-1" source="K6e0-WF95_BE1Na-YqOo-10">
          <mxGeometry relative="1" as="geometry">
            <mxPoint x="450" y="415" as="targetPoint" />
          </mxGeometry>
        </mxCell>
        <mxCell id="K6e0-WF95_BE1Na-YqOo-22" style="edgeStyle=orthogonalEdgeStyle;rounded=0;orthogonalLoop=1;jettySize=auto;html=1;exitX=0.5;exitY=1;exitDx=0;exitDy=0;entryX=0.5;entryY=0;entryDx=0;entryDy=0;" edge="1" parent="WIyWlLk6GJQsqaUBKTNV-1" source="K6e0-WF95_BE1Na-YqOo-10" target="K6e0-WF95_BE1Na-YqOo-21">
          <mxGeometry relative="1" as="geometry" />
        </mxCell>
        <mxCell id="K6e0-WF95_BE1Na-YqOo-23" value="SI" style="edgeLabel;html=1;align=center;verticalAlign=middle;resizable=0;points=[];" vertex="1" connectable="0" parent="K6e0-WF95_BE1Na-YqOo-22">
          <mxGeometry x="-0.0286" y="2" relative="1" as="geometry">
            <mxPoint as="offset" />
          </mxGeometry>
        </mxCell>
        <mxCell id="K6e0-WF95_BE1Na-YqOo-10" value="Ho (ancora) un filtro da&amp;nbsp;&lt;br&gt;applicare?" style="rhombus;whiteSpace=wrap;html=1;" vertex="1" parent="WIyWlLk6GJQsqaUBKTNV-1">
          <mxGeometry x="200" y="360" width="160" height="110" as="geometry" />
        </mxCell>
        <mxCell id="K6e0-WF95_BE1Na-YqOo-15" style="edgeStyle=orthogonalEdgeStyle;rounded=0;orthogonalLoop=1;jettySize=auto;html=1;exitX=1;exitY=0.5;exitDx=0;exitDy=0;entryX=0.675;entryY=1.067;entryDx=0;entryDy=0;entryPerimeter=0;" edge="1" parent="WIyWlLk6GJQsqaUBKTNV-1" source="K6e0-WF95_BE1Na-YqOo-12" target="K6e0-WF95_BE1Na-YqOo-16">
          <mxGeometry relative="1" as="geometry">
            <mxPoint x="660" y="330" as="targetPoint" />
            <Array as="points">
              <mxPoint x="661" y="415" />
            </Array>
          </mxGeometry>
        </mxCell>
        <mxCell id="K6e0-WF95_BE1Na-YqOo-17" value="SI" style="edgeLabel;html=1;align=center;verticalAlign=middle;resizable=0;points=[];" vertex="1" connectable="0" parent="K6e0-WF95_BE1Na-YqOo-15">
          <mxGeometry x="0.3335" y="1" relative="1" as="geometry">
            <mxPoint as="offset" />
          </mxGeometry>
        </mxCell>
        <mxCell id="K6e0-WF95_BE1Na-YqOo-19" style="edgeStyle=orthogonalEdgeStyle;rounded=0;orthogonalLoop=1;jettySize=auto;html=1;exitX=0.5;exitY=0;exitDx=0;exitDy=0;entryX=1;entryY=1;entryDx=0;entryDy=0;" edge="1" parent="WIyWlLk6GJQsqaUBKTNV-1" source="K6e0-WF95_BE1Na-YqOo-12" target="K6e0-WF95_BE1Na-YqOo-2">
          <mxGeometry relative="1" as="geometry" />
        </mxCell>
        <mxCell id="K6e0-WF95_BE1Na-YqOo-20" value="NO" style="edgeLabel;html=1;align=center;verticalAlign=middle;resizable=0;points=[];" vertex="1" connectable="0" parent="K6e0-WF95_BE1Na-YqOo-19">
          <mxGeometry x="-0.0874" relative="1" as="geometry">
            <mxPoint as="offset" />
          </mxGeometry>
        </mxCell>
        <mxCell id="K6e0-WF95_BE1Na-YqOo-12" value="La foto è quella&lt;br&gt;giusta da pubblicare?" style="rhombus;whiteSpace=wrap;html=1;" vertex="1" parent="WIyWlLk6GJQsqaUBKTNV-1">
          <mxGeometry x="450" y="367.5" width="160" height="95" as="geometry" />
        </mxCell>
        <mxCell id="K6e0-WF95_BE1Na-YqOo-13" value="Fine" style="ellipse;whiteSpace=wrap;html=1;" vertex="1" parent="WIyWlLk6GJQsqaUBKTNV-1">
          <mxGeometry x="580" y="110" width="120" height="80" as="geometry" />
        </mxCell>
        <mxCell id="K6e0-WF95_BE1Na-YqOo-18" style="edgeStyle=orthogonalEdgeStyle;rounded=0;orthogonalLoop=1;jettySize=auto;html=1;exitX=0.5;exitY=0;exitDx=0;exitDy=0;entryX=0.5;entryY=1;entryDx=0;entryDy=0;" edge="1" parent="WIyWlLk6GJQsqaUBKTNV-1" source="K6e0-WF95_BE1Na-YqOo-16" target="K6e0-WF95_BE1Na-YqOo-13">
          <mxGeometry relative="1" as="geometry" />
        </mxCell>
        <mxCell id="K6e0-WF95_BE1Na-YqOo-16" value="Pubblico la foto&lt;br&gt;selezionata" style="rounded=1;whiteSpace=wrap;html=1;" vertex="1" parent="WIyWlLk6GJQsqaUBKTNV-1">
          <mxGeometry x="580" y="240" width="120" height="60" as="geometry" />
        </mxCell>
        <mxCell id="K6e0-WF95_BE1Na-YqOo-24" style="edgeStyle=orthogonalEdgeStyle;rounded=0;orthogonalLoop=1;jettySize=auto;html=1;exitX=0.5;exitY=1;exitDx=0;exitDy=0;entryX=0;entryY=0.5;entryDx=0;entryDy=0;" edge="1" parent="WIyWlLk6GJQsqaUBKTNV-1" source="K6e0-WF95_BE1Na-YqOo-21" target="K6e0-WF95_BE1Na-YqOo-25">
          <mxGeometry relative="1" as="geometry">
            <mxPoint x="280" y="720" as="targetPoint" />
          </mxGeometry>
        </mxCell>
        <mxCell id="K6e0-WF95_BE1Na-YqOo-21" value="Applico il filtro" style="rounded=1;whiteSpace=wrap;html=1;" vertex="1" parent="WIyWlLk6GJQsqaUBKTNV-1">
          <mxGeometry x="220" y="540" width="120" height="60" as="geometry" />
        </mxCell>
        <mxCell id="K6e0-WF95_BE1Na-YqOo-27" style="edgeStyle=orthogonalEdgeStyle;rounded=0;orthogonalLoop=1;jettySize=auto;html=1;exitX=0.5;exitY=0;exitDx=0;exitDy=0;entryX=0.5;entryY=1;entryDx=0;entryDy=0;" edge="1" parent="WIyWlLk6GJQsqaUBKTNV-1" source="K6e0-WF95_BE1Na-YqOo-25" target="K6e0-WF95_BE1Na-YqOo-12">
          <mxGeometry relative="1" as="geometry" />
        </mxCell>
        <mxCell id="K6e0-WF95_BE1Na-YqOo-28" value="SI" style="edgeLabel;html=1;align=center;verticalAlign=middle;resizable=0;points=[];" vertex="1" connectable="0" parent="K6e0-WF95_BE1Na-YqOo-27">
          <mxGeometry x="-0.0133" relative="1" as="geometry">
            <mxPoint as="offset" />
          </mxGeometry>
        </mxCell>
        <mxCell id="K6e0-WF95_BE1Na-YqOo-29" style="edgeStyle=orthogonalEdgeStyle;rounded=0;orthogonalLoop=1;jettySize=auto;html=1;exitX=0.5;exitY=1;exitDx=0;exitDy=0;entryX=0;entryY=0.5;entryDx=0;entryDy=0;" edge="1" parent="WIyWlLk6GJQsqaUBKTNV-1" source="K6e0-WF95_BE1Na-YqOo-25" target="K6e0-WF95_BE1Na-YqOo-10">
          <mxGeometry relative="1" as="geometry" />
        </mxCell>
        <mxCell id="K6e0-WF95_BE1Na-YqOo-30" value="NO" style="edgeLabel;html=1;align=center;verticalAlign=middle;resizable=0;points=[];" vertex="1" connectable="0" parent="K6e0-WF95_BE1Na-YqOo-29">
          <mxGeometry x="-0.4422" y="-6" relative="1" as="geometry">
            <mxPoint as="offset" />
          </mxGeometry>
        </mxCell>
        <mxCell id="K6e0-WF95_BE1Na-YqOo-25" value="Il filtro migliora la luce&lt;br&gt;e rende più vividi i&lt;br&gt;colori?" style="rhombus;whiteSpace=wrap;html=1;" vertex="1" parent="WIyWlLk6GJQsqaUBKTNV-1">
          <mxGeometry x="470" y="600" width="160" height="120" as="geometry" />
        </mxCell>
      </root>
    </mxGraphModel>
  </diagram>
</mxfile>
